<svg xmlns="http://www.w3.org/2000/svg" width="200" height="200" viewBox="0 0 200 200">
  <g fill="none" fill-rule="evenodd">
    <path fill="#FFF" d="M99 52h84v34H99z"/>
    <path d="M23 163c-7.4 0-13.84-4.03-17.3-10A19.89 19.89 0 003 163a20 20 0 0020 20h20v-20H23z" fill="#3ECC5F"/>
    <path d="M112.98 57.38L183 53V43a20 20 0 00-20-20H73l-2.5-4.33a2.89 2.89 0 00-5 0L63 23l-2.5-4.33a2.89 2.89 0 00-5 0L53 23l-2.5-4.33a2.89 2.89 0 00-5 0L43 23h-.07l-4.14-4.14a2.89 2.89 0 00-4.83 1.3l-1.36 5.1-5.2-1.4a2.89 2.89 0 00-3.53 3.54l1.39 5.2-5.1 1.36a2.89 2.89 0 00-1.3 4.83L23 42.94V43l-4.33 2.5a2.89 2.89 0 000 5L23 53l-4.33 2.5a2.89 2.89 0 000 5L23 63l-4.33 2.5a2.89 2.89 0 000 5L23 73l-4.33 2.5a2.89 2.89 0 000 5L23 83l-4.33 2.5a2.89 2.89 0 000 5L23 93l-4.33 2.5a2.89 2.89 0 000 5L23 103l-4.33 2.5a2.89 2.89 0 000 5L23 113l-4.33 2.5a2.89 2.89 0 000 5L23 123l-4.33 2.5a2.89 2.89 0 000 5L23 133l-4.33 2.5a2.89 2.89 0 000 5L23 143l-4.33 2.5a2.89 2.89 0 000 5L23 153l-4.33 2.5a2.89 2.89 0 000 5L23 163a20 20 0 0020 20h120a20 20 0 0020-20V83l-70.02-4.38A10.64 10.64 0 01103 68c0-5.62 4.37-10.27 9.98-10.62" fill="#3ECC5F"/>
    <path fill="#3ECC5F" d="M143 183h30v-40h-30z"/>
    <path d="M193 158c-.22 0-.43.04-.64.06l-.12-.45a5 5 0 00-1.92-9.61 4.96 4.96 0 00-3.02 1.04 26.53 26.53 0 00-.33-.34 4.96 4.96 0 001.01-2.99 5 5 0 00-9.6-1.96l-.44-.11c.02-.21.06-.42.06-.64a5 5 0 00-5-5 5 5 0 00-5 5c0 .22.04.43.06.64l-.44.11a5 5 0 00-9.6 1.96c0 1.13.38 2.15 1.01 2.99a20 20 0 1033.33 19.24c.21.02.42.06.64.06a5 5 0 005-5 5 5 0 00-5-5" fill="#44D860"/>
    <path fill="#3ECC5F" d="M153 123h30v-20h-30z"/>
    <path d="M193 115.5a2.5 2.5 0 100-5l-.32.03-.06-.22a2.5 2.5 0 00-.96-4.81c-.57 0-1.09.2-1.5.52a6.65 6.65 0 00-.18-.17c.32-.42.51-.93.51-1.5a2.5 2.5 0 00-4.8-.97A9.99 9.99 0 00183 103a10 10 0 102.69 19.62 2.5 2.5 0 004.8-.98c0-.56-.2-1.07-.5-1.49l.16-.17c.42.32.94.52 1.51.52a2.5 2.5 0 00.96-4.8l.06-.23c.1.01.21.03.32.03" fill="#44D860"/>
    <path d="M63 55.5a2.5 2.5 0 01-2.5-2.5 7.5 7.5 0 00-15 0 2.5 2.5 0 11-5 0 12.5 12.5 0 0125 0 2.5 2.5 0 01-2.5 2.5" fill="#000"/>
    <path d="M103 183h60a20 20 0 0020-20V93h-60a20 20 0 00-20 20v70z" fill="#FFFF50"/>
    <path d="M168.02 124h-50.04a1 1 0 110-2h50.04a1 1 0 110 2m0 20h-50.04a1 1 0 110-2h50.04a1 1 0 110 2m0 20h-50.04a1 1 0 110-2h50.04a1 1 0 110 2m0-49.81h-50.04a1 1 0 110-2h50.04a1 1 0 110 2m0 19.81h-50.04a1 1 0 110-2h50.04a1 1 0 110 2m0 20h-50.04a1 1 0 110-2h50.04a1 1 0 110 2M183 61.61h-.03c-3.1.1-4.56 3.2-5.85 5.92-1.34 2.85-2.38 4.7-4.09 4.65-1.89-.07-2.97-2.2-4.11-4.46-1.32-2.6-2.82-5.54-5.96-5.43-3.05.1-4.52 2.8-5.81 5.17-1.38 2.52-2.32 4.06-4.12 4-1.93-.08-2.95-1.81-4.14-3.82-1.32-2.24-2.85-4.75-5.93-4.67-3 .1-4.47 2.39-5.77 4.4-1.37 2.13-2.33 3.43-4.16 3.35-1.98-.07-3-1.5-4.17-3.17-1.33-1.88-2.82-4-5.9-3.9-2.93.1-4.4 1.98-5.7 3.63-1.23 1.56-2.19 2.8-4.22 2.72a1 1 0 00-.08 2c3.02.1 4.55-1.8 5.88-3.49 1.17-1.5 2.19-2.78 4.19-2.85 1.93-.08 2.83 1.11 4.2 3.04 1.3 1.84 2.76 3.92 5.73 4.02 3.1.1 4.6-2.21 5.91-4.26 1.19-1.84 2.2-3.42 4.15-3.49 1.8-.06 2.77 1.35 4.15 3.68 1.3 2.2 2.76 4.69 5.79 4.8 3.12.1 4.63-2.62 5.94-5.04 1.14-2.08 2.22-4.05 4.12-4.12 1.8-.04 2.73 1.6 4.11 4.33 1.3 2.55 2.76 5.44 5.83 5.55h.17c3.06 0 4.52-3.07 5.8-5.79 1.14-2.4 2.22-4.68 4.07-4.77v-2z" fill="#000"/>
    <path fill="#3ECC5F" d="M83 183h40v-40H83z"/>
    <path d="M143 158c-.22 0-.43.04-.64.06l-.12-.45a5 5 0 00-1.92-9.61 4.96 4.96 0 00-3.02 1.04 26.53 26.53 0 00-.33-.34 4.96 4.96 0 001.01-2.99 5 5 0 00-9.6-1.96l-.44-.11c.02-.21.06-.42.06-.64a5 5 0 00-5-5 5 5 0 00-5 5c0 .22.04.43.06.64l-.44.11a5 5 0 00-9.6 1.96c0 1.13.38 2.15 1.01 2.99a20 20 0 1033.33 19.24c.21.02.42.06.64.06a5 5 0 005-5 5 5 0 00-5-5" fill="#44D860"/>
    <path fill="#3ECC5F" d="M83 123h40v-20H83z"/>
    <path d="M133 115.5a2.5 2.5 0 100-5l-.32.03-.06-.22a2.5 2.5 0 00-.96-4.81c-.57 0-1.09.2-1.5.52a6.65 6.65 0 00-.18-.17c.32-.42.51-.93.51-1.5a2.5 2.5 0 00-4.8-.97A9.99 9.99 0 00123 103a10 10 0 102.69 19.62 2.5 2.5 0 004.8-.98c0-.56-.2-1.07-.5-1.49l.16-.17c.42.32.94.52 1.51.52a2.5 2.5 0 00.96-4.8l.06-.23c.1.01.21.03.32.03" fill="#44D860"/>
    <path d="M143 41.75c-.16 0-.33-.02-.49-.05a2.52 2.52 0 01-.47-.14 2.6 2.6 0 01-.81-.54 2.63 2.63 0 01-.54-.81 2.62 2.62 0 01-.19-.96 2.72 2.72 0 01.19-.96 2.63 2.63 0 01.92-1.12 2.6 2.6 0 01.9-.37 2.57 2.57 0 011.88.37c.13.09.26.2.38.31a2.55 2.55 0 01.73 1.77 2.53 2.53 0 01-1.54 2.31 2.56 2.56 0 01-.96.19m20-1.25c-.66 0-1.3-.27-1.77-.73a3.8 3.8 0 01-.31-.38 2.63 2.63 0 01-.23-.43 2.62 2.62 0 01-.19-.96 2.55 2.55 0 011.1-2.08 2.6 2.6 0 01.91-.37 2.57 2.57 0 011.88.37 2.55 2.55 0 01.92 3.04c-.07.15-.14.29-.23.43-.09.13-.2.26-.31.38a2.59 2.59 0 01-.81.54 2.56 2.56 0 01-.96.19" fill="#000"/>
  </g>
</svg>
