<svg xmlns="http://www.w3.org/2000/svg" width="138" height="160" viewBox="0 0 138 160">
  <g fill="none">
    <polygon fill="#673AB8" points="69 0 138 40 138 120 69 160 0 120 0 40"/>
    <path fill="#FFF" d="M18.6179634,119.768105 C27.7755878,131.578648 56.8796764,122.579752 84.3563169,100.949323 C111.832957,79.3194363 127.539661,53.0428766 118.382037,41.2317916 C109.223874,29.4212489 80.1203236,38.4206872 52.6436831,60.0505738 C25.1670426,81.6815449 9.46033893,107.957562 18.6179634,119.768105 Z M22.5305121,116.688037 C19.4930396,112.771795 20.8201848,105.082471 26.6061286,95.402489 C32.6993716,85.2095242 43.0426006,73.9569727 55.6999918,63.992844 C68.3579212,54.0287153 81.6955685,46.6381787 92.9854513,43.1470734 C103.707019,39.8322043 111.432554,40.3950759 114.469488,44.3118597 C117.50696,48.2286434 116.179815,55.9179683 110.393871,65.5979499 C104.300628,75.7909146 93.9573994,87.0429239 81.3000082,97.0075949 C68.6420788,106.971724 55.3038933,114.36226 44.0145487,117.852823 C33.2929812,121.168235 25.5674465,120.605363 22.5305121,116.688579 L22.5305121,116.688037 Z"/>
    <path fill="#FFF" d="M118.381843,119.76788 C127.53997,107.957369 111.832789,81.6808797 84.3562554,60.0505091 C56.8797214,38.4206807 27.7752075,29.4212665 18.6181567,41.2317775 C9.46002963,53.0422885 25.1672105,79.3193198 52.6437446,100.949148 C80.1202786,122.579519 109.223716,131.578933 118.381843,119.76788 Z M114.46931,116.68782 C111.432387,120.605135 103.706882,121.168006 92.9853563,117.852603 C81.6955173,114.362049 68.3579218,106.971533 55.7005796,97.0074308 C43.0426993,87.0427867 32.6989722,75.7908076 26.6068292,65.5978703 C20.8203696,55.9179148 19.4932296,48.2291528 22.5301521,44.3118373 C25.5676129,40.3950641 33.2931176,39.832194 44.0141055,43.1470542 C55.3039445,46.6381501 68.6420782,54.0286668 81.2994204,63.9927687 C93.9573007,73.9568706 104.30049,85.2093919 110.393171,95.4023292 C116.17963,105.081743 117.50677,112.771047 114.46931,116.688362 L114.46931,116.68782 Z"/>
    <path fill="#FFF" d="M68.5002678,91 C74.2994108,91 79,86.2988752 79,80.4997322 C79,74.7011248 74.2994108,70 68.5002678,70 C62.7011248,70 58,74.7011248 58,80.4997322 C58,86.2988752 62.7011248,91 68.5002678,91 L68.5002678,91 Z"/>
  </g>
</svg>
